<svg width="13" height="13" viewBox="0 0 13 13" xmlns="http://www.w3.org/2000/svg"><title>search-icon</title><path d="M8.357 5.893c0-.895-.318-1.66-.954-2.296-.636-.636-1.4-.954-2.296-.954-.895 0-1.66.318-2.296.954-.635.636-.953 1.4-.953 2.296 0 .895.318 1.66.954 2.296.637.635 1.402.953 2.297.953.895 0 1.66-.318 2.296-.954.636-.637.954-1.402.954-2.297zm3.714 6.036c0 .25-.09.468-.274.65-.184.185-.402.277-.653.277-.26 0-.48-.092-.653-.276L8.002 10.1c-.866.6-1.83.9-2.895.9-.69 0-1.353-.134-1.984-.403-.63-.268-1.175-.63-1.632-1.088C1.035 9.05.67 8.507.404 7.876.133 7.247 0 6.584 0 5.893 0 5.2.134 4.54.403 3.91c.268-.632.63-1.176 1.088-1.633.458-.458 1.002-.82 1.633-1.09.63-.267 1.293-.4 1.984-.4.692 0 1.353.133 1.984.4.632.27 1.176.632 1.633 1.09.458.457.82 1 1.09 1.632.267.63.4 1.29.4 1.983 0 1.064-.3 2.03-.898 2.894l2.488 2.49c.18.178.268.395.268.652z" fill="#C7C7C7" fill-rule="evenodd"/></svg>