<?xml version="1.0" encoding="UTF-8" standalone="no"?>
<svg width="15px" height="16px" viewBox="0 0 15 16" version="1.1" xmlns="http://www.w3.org/2000/svg" xmlns:xlink="http://www.w3.org/1999/xlink" xmlns:sketch="http://www.bohemiancoding.com/sketch/ns">
    <g id="calendar" stroke="none" stroke-width="1" fill="none" fill-rule="evenodd" sketch:type="MSPage">
        <g id="03a-calendar-month-empty" sketch:type="MSArtboardGroup" transform="translate(-380.000000, -132.000000)" fill="#BBBBBB">
            <g id="join-calendar" sketch:type="MSLayerGroup" transform="translate(232.000000, 124.000000)">
                <path d="M157.714286,15.9285714 C157.714286,15.2581812 157.477123,14.6858283 157.00279,14.2114955 C156.528457,13.7371628 155.956105,13.5 155.285714,13.5 C154.615324,13.5 154.042971,13.7371628 153.568638,14.2114955 C153.094306,14.6858283 152.857143,15.2581812 152.857143,15.9285714 C152.857143,16.5989617 153.094306,17.1713146 153.568638,17.6456473 C154.042971,18.1199801 154.615324,18.3571429 155.285714,18.3571429 C155.956105,18.3571429 156.528457,18.1199801 157.00279,17.6456473 C157.477123,17.1713146 157.714286,16.5989617 157.714286,15.9285714 L157.714286,15.9285714 Z M162.571429,14.8945312 L162.571429,17.000558 C162.571429,17.0764513 162.546131,17.1491812 162.495536,17.21875 C162.44494,17.2883188 162.381697,17.329427 162.305804,17.3420759 L160.550781,17.6077009 C160.430617,17.9492205 160.307292,18.236978 160.180804,18.4709821 C160.402159,18.787204 160.740511,19.2235835 161.195871,19.7801339 C161.259115,19.8560272 161.290737,19.9350814 161.290737,20.0172991 C161.290737,20.0995168 161.262277,20.1722467 161.205357,20.2354911 C161.034597,20.4694952 160.721542,20.8110097 160.266183,21.2600446 C159.810824,21.7090796 159.51358,21.9335938 159.374442,21.9335938 C159.298549,21.9335938 159.216332,21.9051342 159.12779,21.8482143 L157.818638,20.8236607 C157.540363,20.9691228 157.252606,21.0892852 156.955357,21.1841518 C156.854166,22.0442751 156.762463,22.6324389 156.680246,22.9486607 C156.635974,23.1257449 156.522136,23.2142857 156.338728,23.2142857 L154.232701,23.2142857 C154.144159,23.2142857 154.066686,23.1874073 154.000279,23.1336496 C153.933872,23.0798918 153.897507,23.0119052 153.891183,22.9296875 L153.625558,21.1841518 C153.315661,21.0829608 153.031065,20.9659605 152.771763,20.8331473 L151.434152,21.8482143 C151.370907,21.9051342 151.291853,21.9335938 151.196987,21.9335938 C151.108444,21.9335938 151.02939,21.8988099 150.959821,21.8292411 C150.162942,21.1082553 149.641184,20.5770106 149.394531,20.2354911 C149.35026,20.1722467 149.328125,20.0995168 149.328125,20.0172991 C149.328125,19.9414059 149.353422,19.8686759 149.404018,19.7991071 C149.498884,19.666294 149.660155,19.4560096 149.887835,19.1682478 C150.115515,18.8804859 150.286272,18.6575529 150.400112,18.499442 C150.229352,18.1832201 150.099703,17.8701652 150.011161,17.5602679 L148.275112,17.3041295 C148.192894,17.2914806 148.126488,17.2519535 148.075893,17.1855469 C148.025297,17.1191403 148,17.0448293 148,16.9626116 L148,14.8565848 C148,14.7806916 148.025297,14.7079617 148.075893,14.6383929 C148.126488,14.5688241 148.18657,14.5277158 148.256138,14.515067 L150.020647,14.249442 C150.109189,13.9585179 150.232514,13.6675982 150.390625,13.3766741 C150.137648,13.0161812 149.799295,12.5798017 149.375558,12.0675223 C149.312314,11.9916291 149.280692,11.915737 149.280692,11.8398438 C149.280692,11.7765994 149.309152,11.7038695 149.366071,11.6216518 C149.530507,11.3939721 149.841981,11.0540387 150.300502,10.6018415 C150.759024,10.1496443 151.057849,9.92354911 151.196987,9.92354911 C151.279204,9.92354911 151.361421,9.95517081 151.443638,10.0184152 L152.75279,11.0334821 C153.031065,10.8880201 153.318823,10.7678576 153.616071,10.6729911 C153.717262,9.81286772 153.808965,9.22470396 153.891183,8.90848214 C153.935454,8.73139792 154.049292,8.64285714 154.232701,8.64285714 L156.338728,8.64285714 C156.42727,8.64285714 156.504743,8.66973559 156.57115,8.7234933 C156.637556,8.77725101 156.673921,8.84523768 156.680246,8.92745536 L156.945871,10.6729911 C157.255768,10.7741821 157.540363,10.8911824 157.799665,11.0239955 L159.146763,10.0089286 C159.203683,9.95200864 159.279575,9.92354911 159.374442,9.92354911 C159.45666,9.92354911 159.535714,9.95517081 159.611607,10.0184152 C160.427459,10.7710231 160.949218,11.3085921 161.176897,11.6311384 C161.221168,11.6817339 161.243304,11.7513016 161.243304,11.8398438 C161.243304,11.915737 161.218006,11.9884669 161.167411,12.0580357 C161.072544,12.1908489 160.911273,12.4011332 160.683594,12.6888951 C160.455914,12.9766569 160.285157,13.19959 160.171317,13.3577009 C160.335752,13.6739227 160.465401,13.9838154 160.560268,14.2873884 L162.296317,14.5530134 C162.378535,14.5656623 162.44494,14.6051894 162.495536,14.671596 C162.546131,14.7380026 162.571429,14.8123136 162.571429,14.8945312 L162.571429,14.8945312 Z" id="icon-cog" sketch:type="MSShapeGroup"></path>
            </g>
        </g>
    </g>
</svg>