<svg width="15" height="16" viewBox="0 0 15 16" xmlns="http://www.w3.org/2000/svg"><path d="M9.714 7.93c0-.672-.237-1.244-.71-1.72-.476-.473-1.048-.71-1.718-.71-.67 0-1.243.237-1.717.71-.476.476-.713 1.048-.713 1.72 0 .67.237 1.24.712 1.716.473.474 1.045.71 1.716.71.67 0 1.242-.236 1.717-.71.474-.475.71-1.047.71-1.717zm4.857-1.035V9c0 .076-.024.15-.074.22-.05.068-.114.11-.19.122l-1.755.266c-.12.34-.243.63-.37.863.222.317.56.754 1.016 1.31.063.076.095.155.095.237 0 .083-.028.155-.085.218-.17.234-.483.576-.94 1.025-.454.45-.75.674-.89.674-.076 0-.16-.03-.247-.086l-1.31-1.024c-.278.145-.565.265-.863.36-.1.86-.193 1.448-.275 1.765-.044.176-.158.264-.34.264H6.232c-.09 0-.166-.027-.233-.08-.066-.054-.102-.122-.11-.204l-.264-1.746c-.31-.1-.595-.218-.854-.35l-1.338 1.014c-.063.057-.142.086-.237.086-.09 0-.168-.035-.237-.105-.797-.722-1.32-1.253-1.565-1.595-.045-.063-.067-.135-.067-.218 0-.076.025-.148.076-.218.095-.134.256-.344.484-.632.228-.288.398-.51.512-.67-.17-.315-.3-.628-.39-.938L.276 9.304c-.082-.013-.15-.052-.2-.118C.026 9.12 0 9.046 0 8.963V6.857c0-.076.025-.15.076-.22.05-.068.11-.11.18-.122L2.02 6.25c.09-.29.213-.582.37-.873-.252-.36-.59-.797-1.014-1.31-.064-.075-.095-.15-.095-.227 0-.063.03-.136.086-.218.165-.228.476-.568.935-1.02.46-.452.758-.678.897-.678.082 0 .164.03.247.094l1.31 1.015c.277-.145.565-.265.862-.36.1-.86.193-1.448.275-1.765.045-.177.16-.265.343-.265H8.34c.087 0 .165.027.23.08.068.054.104.122.11.204l.266 1.746c.31.1.594.218.854.35l1.347-1.014c.057-.058.133-.086.227-.086.083 0 .162.03.238.094.815.753 1.337 1.29 1.565 1.613.044.052.066.12.066.21 0 .076-.025.148-.076.218-.094.133-.256.343-.483.63-.228.29-.4.512-.513.67.166.316.295.626.39.93l1.736.265c.083.013.15.052.2.12.05.065.075.14.075.222z" fill="#989DA0" fill-rule="evenodd" class="cog"/></svg>