<?xml version="1.0" encoding="UTF-8" standalone="no"?>
<svg width="13px" height="13px" viewBox="0 0 13 13" version="1.1" xmlns="http://www.w3.org/2000/svg" xmlns:xlink="http://www.w3.org/1999/xlink" xmlns:sketch="http://www.bohemiancoding.com/sketch/ns">
    <!-- Generator: Sketch 3.5.1 (25234) - http://www.bohemiancoding.com/sketch -->
    <title>search-icon</title>
    <desc>Created with Sketch.</desc>
    <defs></defs>
    <g id="calendar" stroke="none" stroke-width="1" fill="none" fill-rule="evenodd" sketch:type="MSPage">
        <g id="01g-calendar-week-calendars" sketch:type="MSArtboardGroup" transform="translate(-49.000000, -178.000000)" fill="#C7C7C7">
            <g id="Group-+-Group" sketch:type="MSLayerGroup" transform="translate(32.000000, 124.000000)">
                <g id="Group" transform="translate(0.000000, 37.000000)" sketch:type="MSShapeGroup">
                    <path d="M25.3571429,22.8928571 C25.3571429,21.9981354 25.0391587,21.2327971 24.4031808,20.5968192 C23.7672029,19.9608413 23.0018646,19.6428571 22.1071429,19.6428571 C21.2124211,19.6428571 20.4470828,19.9608413 19.8111049,20.5968192 C19.175127,21.2327971 18.8571429,21.9981354 18.8571429,22.8928571 C18.8571429,23.7875789 19.175127,24.5529172 19.8111049,25.1888951 C20.4470828,25.824873 21.2124211,26.1428571 22.1071429,26.1428571 C23.0018646,26.1428571 23.7672029,25.824873 24.4031808,25.1888951 C25.0391587,24.5529172 25.3571429,23.7875789 25.3571429,22.8928571 L25.3571429,22.8928571 Z M29.0714286,28.9285714 C29.0714286,29.1800608 28.9795396,29.3976925 28.7957589,29.5814732 C28.6119782,29.7652539 28.3943465,29.8571429 28.1428571,29.8571429 C27.8816951,29.8571429 27.6640634,29.7652539 27.4899554,29.5814732 L25.0016741,27.1004464 C24.1359704,27.7001518 23.1711363,28 22.1071429,28 C21.4155471,28 20.7541884,27.8657938 20.1230469,27.5973772 C19.4919053,27.3289607 18.9478259,26.9662411 18.4907924,26.5092076 C18.0337589,26.0521741 17.6710393,25.5080947 17.4026228,24.8769531 C17.1342062,24.2458116 17,23.5844529 17,22.8928571 C17,22.2012614 17.1342062,21.5399027 17.4026228,20.9087612 C17.6710393,20.2776196 18.0337589,19.7335402 18.4907924,19.2765067 C18.9478259,18.8194732 19.4919053,18.4567536 20.1230469,18.1883371 C20.7541884,17.9199205 21.4155471,17.7857143 22.1071429,17.7857143 C22.7987386,17.7857143 23.4600973,17.9199205 24.0912388,18.1883371 C24.7223804,18.4567536 25.2664598,18.8194732 25.7234933,19.2765067 C26.1805268,19.7335402 26.5432464,20.2776196 26.8116629,20.9087612 C27.0800795,21.5399027 27.2142857,22.2012614 27.2142857,22.8928571 C27.2142857,23.9568506 26.9144375,24.9216847 26.3147321,25.7873884 L28.8030134,28.2756696 C28.9819577,28.454614 29.0714286,28.6722457 29.0714286,28.9285714 L29.0714286,28.9285714 Z" id="search-icon"></path>
                </g>
            </g>
        </g>
    </g>
</svg>